<mxfile host="app.diagrams.net" agent="Mozilla/5.0 (Windows NT 10.0; Win64; x64) AppleWebKit/537.36 (KHTML, like Gecko) Chrome/136.0.0.0 Safari/537.36" version="27.0.3">
  <diagram name="Page-1" id="RjYrILVm3MHsQhJZIWvh">
    <mxGraphModel dx="1025" dy="463" grid="1" gridSize="10" guides="1" tooltips="1" connect="1" arrows="1" fold="1" page="1" pageScale="1" pageWidth="850" pageHeight="1100" math="0" shadow="0">
      <root>
        <mxCell id="0" />
        <mxCell id="1" parent="0" />
        <mxCell id="fGHgDMfOkI5sgYFARb2t-1" value="&lt;p style=&quot;margin:0px;margin-top:4px;text-align:center;text-decoration:underline;&quot;&gt;&lt;b&gt;aAuditLog&lt;/b&gt;&lt;/p&gt;&lt;hr size=&quot;1&quot; style=&quot;border-style:solid;&quot;&gt;&lt;p style=&quot;margin:0px;margin-left:8px;&quot;&gt;logID = 1033&lt;br&gt;action =&amp;nbsp;&quot;LoginAttempt&quot;&lt;br&gt;timestamp = 2024/6/7&lt;/p&gt;&lt;p style=&quot;margin:0px;margin-left:8px;&quot;&gt;description =&amp;nbsp;&quot;Patient PAT12345 successfully logged in from IP address 192.168.1.24&quot;&lt;/p&gt;" style="verticalAlign=top;align=left;overflow=fill;html=1;whiteSpace=wrap;" vertex="1" parent="1">
          <mxGeometry x="281" y="155" width="252" height="116" as="geometry" />
        </mxCell>
      </root>
    </mxGraphModel>
  </diagram>
</mxfile>
